<svg id="visual" viewBox="0 0 900 450" width="900" height="450" xmlns="http://www.w3.org/2000/svg" xmlns:xlink="http://www.w3.org/1999/xlink" version="1.1"><rect x="0" y="0" width="900" height="450" fill="#222831"></rect><defs><linearGradient id="grad1_0" x1="50%" y1="100%" x2="100%" y2="0%"><stop offset="10%" stop-color="#222831" stop-opacity="1"></stop><stop offset="90%" stop-color="#222831" stop-opacity="1"></stop></linearGradient></defs><defs><linearGradient id="grad2_0" x1="0%" y1="100%" x2="50%" y2="0%"><stop offset="10%" stop-color="#222831" stop-opacity="1"></stop><stop offset="90%" stop-color="#222831" stop-opacity="1"></stop></linearGradient></defs><g transform="translate(900, 450)"><path d="M-270 0C-263.5 -48.2 -257 -96.4 -233.8 -135C-210.6 -173.6 -170.8 -202.5 -129 -223.4C-87.2 -244.3 -43.6 -257.2 0 -270L0 0Z" fill="#eb4d4b"></path></g><g transform="translate(0, 0)"><path d="M270 0C263.6 48.3 257.1 96.6 233.8 135C210.5 173.4 170.3 201.7 128.5 222.6C86.7 243.4 43.4 256.7 0 270L0 0Z" fill="#eb4d4b"></path></g></svg>